<mxfile host="app.diagrams.net" modified="2023-11-13T20:17:14.302Z" agent="Mozilla/5.0 (Windows NT 10.0; Win64; x64) AppleWebKit/537.36 (KHTML, like Gecko) Chrome/119.0.0.0 Safari/537.36 Edg/119.0.0.0" etag="1yWjx8Y3yw-zO9qVHL51" version="22.1.0" type="device">
  <diagram name="Seite-1" id="wUEx7ndTb_bHJJqqPWa8">
    <mxGraphModel dx="1010" dy="682" grid="1" gridSize="10" guides="1" tooltips="1" connect="1" arrows="1" fold="1" page="1" pageScale="1" pageWidth="827" pageHeight="1169" math="0" shadow="0">
      <root>
        <mxCell id="0" />
        <mxCell id="1" parent="0" />
        <mxCell id="tBT3JFBlceWDcz8bJR0U-1" value="User" style="shape=umlActor;verticalLabelPosition=bottom;verticalAlign=top;html=1;outlineConnect=0;" parent="1" vertex="1">
          <mxGeometry x="60" y="255" width="30" height="60" as="geometry" />
        </mxCell>
        <mxCell id="tBT3JFBlceWDcz8bJR0U-2" value="Python Script" style="rounded=0;whiteSpace=wrap;html=1;verticalAlign=top;" parent="1" vertex="1">
          <mxGeometry x="290" y="190" width="310" height="450" as="geometry" />
        </mxCell>
        <mxCell id="tBT3JFBlceWDcz8bJR0U-3" value="Azure OpenAI Service" style="rounded=0;whiteSpace=wrap;html=1;verticalAlign=top;" parent="1" vertex="1">
          <mxGeometry x="660" y="190" width="150" height="280" as="geometry" />
        </mxCell>
        <mxCell id="tBT3JFBlceWDcz8bJR0U-4" value="" style="shape=image;verticalLabelPosition=bottom;labelBackgroundColor=default;verticalAlign=top;aspect=fixed;imageAspect=0;image=https://swimburger.net/media/ppnn3pcl/azure.png;" parent="1" vertex="1">
          <mxGeometry x="705" y="120" width="60" height="60" as="geometry" />
        </mxCell>
        <mxCell id="tBT3JFBlceWDcz8bJR0U-8" style="edgeStyle=orthogonalEdgeStyle;rounded=0;orthogonalLoop=1;jettySize=auto;html=1;entryX=0;entryY=0.5;entryDx=0;entryDy=0;" parent="1" source="tBT3JFBlceWDcz8bJR0U-5" target="tBT3JFBlceWDcz8bJR0U-6" edge="1">
          <mxGeometry relative="1" as="geometry" />
        </mxCell>
        <mxCell id="tBT3JFBlceWDcz8bJR0U-5" value="Streamlit" style="rounded=0;whiteSpace=wrap;html=1;" parent="1" vertex="1">
          <mxGeometry x="310" y="255" width="90" height="60" as="geometry" />
        </mxCell>
        <mxCell id="tBT3JFBlceWDcz8bJR0U-9" value="3 Answer with context" style="edgeStyle=orthogonalEdgeStyle;rounded=0;orthogonalLoop=1;jettySize=auto;html=1;entryX=0;entryY=0.5;entryDx=0;entryDy=0;" parent="1" source="tBT3JFBlceWDcz8bJR0U-6" target="zQcZ2AXFS6AF1ZsvGwD_-1" edge="1">
          <mxGeometry y="15" relative="1" as="geometry">
            <mxPoint as="offset" />
          </mxGeometry>
        </mxCell>
        <mxCell id="zQcZ2AXFS6AF1ZsvGwD_-4" value="1 Vectorize query" style="edgeStyle=orthogonalEdgeStyle;rounded=0;orthogonalLoop=1;jettySize=auto;html=1;entryX=0;entryY=0.5;entryDx=0;entryDy=0;exitX=1;exitY=0.75;exitDx=0;exitDy=0;" edge="1" parent="1" source="tBT3JFBlceWDcz8bJR0U-6" target="zQcZ2AXFS6AF1ZsvGwD_-2">
          <mxGeometry relative="1" as="geometry" />
        </mxCell>
        <mxCell id="zQcZ2AXFS6AF1ZsvGwD_-5" value="2 Vector search" style="edgeStyle=orthogonalEdgeStyle;rounded=0;orthogonalLoop=1;jettySize=auto;html=1;entryX=0.5;entryY=0;entryDx=0;entryDy=0;" edge="1" parent="1" source="tBT3JFBlceWDcz8bJR0U-6" target="zQcZ2AXFS6AF1ZsvGwD_-3">
          <mxGeometry relative="1" as="geometry" />
        </mxCell>
        <mxCell id="tBT3JFBlceWDcz8bJR0U-6" value="Langchain" style="rounded=0;whiteSpace=wrap;html=1;" parent="1" vertex="1">
          <mxGeometry x="460" y="255" width="90" height="60" as="geometry" />
        </mxCell>
        <mxCell id="tBT3JFBlceWDcz8bJR0U-7" value="HTTP" style="edgeStyle=orthogonalEdgeStyle;rounded=0;orthogonalLoop=1;jettySize=auto;html=1;" parent="1" source="tBT3JFBlceWDcz8bJR0U-1" target="tBT3JFBlceWDcz8bJR0U-5" edge="1">
          <mxGeometry relative="1" as="geometry" />
        </mxCell>
        <mxCell id="zQcZ2AXFS6AF1ZsvGwD_-1" value="GPT-3.5-Turbo" style="rounded=0;whiteSpace=wrap;html=1;" vertex="1" parent="1">
          <mxGeometry x="690" y="255" width="90" height="60" as="geometry" />
        </mxCell>
        <mxCell id="zQcZ2AXFS6AF1ZsvGwD_-2" value="Text-Embedding-Ada-002" style="rounded=0;whiteSpace=wrap;html=1;" vertex="1" parent="1">
          <mxGeometry x="690" y="360" width="90" height="60" as="geometry" />
        </mxCell>
        <mxCell id="zQcZ2AXFS6AF1ZsvGwD_-3" value="FAISS" style="rounded=0;whiteSpace=wrap;html=1;" vertex="1" parent="1">
          <mxGeometry x="460" y="360" width="90" height="60" as="geometry" />
        </mxCell>
        <mxCell id="zQcZ2AXFS6AF1ZsvGwD_-9" value="&lt;font color=&quot;#9e9e9e&quot;&gt;2 Vectorize chunks&lt;/font&gt;" style="edgeStyle=orthogonalEdgeStyle;rounded=0;orthogonalLoop=1;jettySize=auto;html=1;entryX=0.5;entryY=1;entryDx=0;entryDy=0;fillColor=#f5f5f5;strokeColor=#666666;" edge="1" parent="1" source="zQcZ2AXFS6AF1ZsvGwD_-6" target="zQcZ2AXFS6AF1ZsvGwD_-2">
          <mxGeometry relative="1" as="geometry" />
        </mxCell>
        <mxCell id="zQcZ2AXFS6AF1ZsvGwD_-10" value="&lt;font color=&quot;#9e9e9e&quot;&gt;3 Store vectors and chunks&lt;/font&gt;" style="edgeStyle=orthogonalEdgeStyle;rounded=0;orthogonalLoop=1;jettySize=auto;html=1;entryX=0.5;entryY=1;entryDx=0;entryDy=0;fillColor=#f5f5f5;strokeColor=#666666;" edge="1" parent="1" source="zQcZ2AXFS6AF1ZsvGwD_-6" target="zQcZ2AXFS6AF1ZsvGwD_-3">
          <mxGeometry relative="1" as="geometry" />
        </mxCell>
        <mxCell id="zQcZ2AXFS6AF1ZsvGwD_-6" value="Startup&lt;br&gt;event of&lt;br&gt;script" style="ellipse;whiteSpace=wrap;html=1;aspect=fixed;fillColor=#f5f5f5;fontColor=#333333;strokeColor=#666666;" vertex="1" parent="1">
          <mxGeometry x="465" y="500" width="80" height="80" as="geometry" />
        </mxCell>
        <mxCell id="zQcZ2AXFS6AF1ZsvGwD_-7" value="PDF file" style="shape=note;whiteSpace=wrap;html=1;backgroundOutline=1;darkOpacity=0.05;" vertex="1" parent="1">
          <mxGeometry x="40" y="486" width="75" height="80" as="geometry" />
        </mxCell>
        <mxCell id="zQcZ2AXFS6AF1ZsvGwD_-8" value="&lt;font color=&quot;#9e9e9e&quot;&gt;1 Read file and chunk pages&lt;/font&gt;" style="edgeStyle=orthogonalEdgeStyle;rounded=0;orthogonalLoop=1;jettySize=auto;html=1;entryX=0;entryY=0;entryDx=75;entryDy=55;entryPerimeter=0;fillColor=#f5f5f5;strokeColor=#666666;" edge="1" parent="1" source="zQcZ2AXFS6AF1ZsvGwD_-6" target="zQcZ2AXFS6AF1ZsvGwD_-7">
          <mxGeometry relative="1" as="geometry" />
        </mxCell>
      </root>
    </mxGraphModel>
  </diagram>
</mxfile>
